# xmcd
#
# Track frame offsets:
#	150
#	13807
#	27377
#	42935
#	53905
#	72780
#	84857
#	100337
#	116550
#	131927
#
# Disc length: 1933
#
# Revision: 2
# Processed by: cddbd v1.5.1PL0 Copyright (c) Steve Scherf et al.
# Submitted via: inCDius 1.1d1
# Normalized: r0:TDELIM( - ),TSWAP
#
DISCID=84078b0a
DTITLE=Various Artist - Rockin' Country Hits
DYEAR=1900
DGENRE=
TTITLE0=Pake McEntire - Every Night
TTITLE1=Ed Bruce - Nights
TTITLE2=Dolly Parton - Tie Our Love (In A Double Knot)
TTITLE3=Keith Whitley - Nobody In His Right Mind Would've Left Her
TTITLE4=Alabama - Mountain Music
TTITLE5=Waylon Jennings - The Devil's On The Loose
TTITLE6=Eddy Raven - You Should Have Been Gone By Now
TTITLE7=Vince Gill - Oklahoma Borderline
TTITLE8=Eddie Rabbit - Repetitive Regret
TTITLE9=The Judds - Girls Night Out
EXTD=
EXTT0=
EXTT1=
EXTT2=
EXTT3=
EXTT4=
EXTT5=
EXTT6=
EXTT7=
EXTT8=
EXTT9=
PLAYORDER=
